<mxfile host="app.diagrams.net" modified="2021-04-24T15:34:16.242Z" agent="5.0 (Macintosh; Intel Mac OS X 10_15_7) AppleWebKit/537.36 (KHTML, like Gecko) Chrome/90.0.4430.85 Safari/537.36" etag="rBTmcqwuEO2PD4xCqYVO" version="14.6.5" type="github">
  <diagram id="UxBxNhYOHXJTw2tBtEdH" name="Page-1">
    <mxGraphModel dx="1298" dy="841" grid="1" gridSize="10" guides="1" tooltips="1" connect="1" arrows="1" fold="1" page="1" pageScale="1" pageWidth="1300" pageHeight="850" math="0" shadow="0">
      <root>
        <mxCell id="0" />
        <mxCell id="1" parent="0" />
        <mxCell id="2" value="" style="rounded=1;arcSize=10;dashed=0;fillColor=none;gradientColor=none;strokeWidth=2;" parent="1" vertex="1">
          <mxGeometry x="241" y="127.5" width="982" height="416" as="geometry" />
        </mxCell>
        <mxCell id="3" value="" style="dashed=0;html=1;shape=mxgraph.aws3.cloud;fillColor=#F58536;gradientColor=none;dashed=0;" parent="1" vertex="1">
          <mxGeometry x="233" y="100" width="90" height="60" as="geometry" />
        </mxCell>
        <mxCell id="4" value="" style="rounded=1;arcSize=10;dashed=0;fillColor=none;gradientColor=none;strokeWidth=2;" parent="1" vertex="1">
          <mxGeometry x="481" y="214" width="722" height="256" as="geometry" />
        </mxCell>
        <mxCell id="5" value="" style="dashed=0;html=1;shape=mxgraph.aws3.virtual_private_cloud;fillColor=#F58536;gradientColor=none;dashed=0;" parent="1" vertex="1">
          <mxGeometry x="453" y="194" width="90" height="60" as="geometry" />
        </mxCell>
        <mxCell id="7" value="" style="outlineConnect=0;dashed=0;verticalLabelPosition=bottom;verticalAlign=top;align=center;html=1;shape=mxgraph.aws3.elastic_beanstalk;fillColor=#F58534;gradientColor=none;" parent="1" vertex="1">
          <mxGeometry x="315.5" y="284" width="67.5" height="93" as="geometry" />
        </mxCell>
        <mxCell id="8" style="edgeStyle=orthogonalEdgeStyle;rounded=0;orthogonalLoop=1;jettySize=auto;html=1;exitX=0.745;exitY=0.5;exitDx=0;exitDy=0;exitPerimeter=0;" parent="1" source="7" target="17" edge="1">
          <mxGeometry relative="1" as="geometry">
            <mxPoint x="566.8571428571429" y="330.1428571428571" as="sourcePoint" />
          </mxGeometry>
        </mxCell>
        <mxCell id="10" value="" style="rounded=1;arcSize=10;dashed=1;strokeColor=#F59D56;fillColor=none;gradientColor=none;dashPattern=8 4;strokeWidth=2;" parent="1" vertex="1">
          <mxGeometry x="581" y="232" width="602" height="221" as="geometry" />
        </mxCell>
        <mxCell id="11" value="" style="rounded=1;arcSize=10;dashed=0;fillColor=none;gradientColor=none;strokeWidth=2;" parent="1" vertex="1">
          <mxGeometry x="621" y="254" width="542" height="163" as="geometry" />
        </mxCell>
        <mxCell id="12" value="" style="dashed=0;html=1;shape=mxgraph.aws3.permissions;fillColor=#D9A741;gradientColor=none;dashed=0;" parent="1" vertex="1">
          <mxGeometry x="613" y="236.5" width="30" height="35" as="geometry" />
        </mxCell>
        <mxCell id="16" style="edgeStyle=orthogonalEdgeStyle;rounded=0;orthogonalLoop=1;jettySize=auto;html=1;entryX=0;entryY=0.5;entryDx=0;entryDy=0;entryPerimeter=0;" parent="1" source="17" target="18" edge="1">
          <mxGeometry relative="1" as="geometry" />
        </mxCell>
        <mxCell id="17" value="" style="outlineConnect=0;dashed=0;verticalLabelPosition=bottom;verticalAlign=top;align=center;html=1;shape=mxgraph.aws3.ec2;fillColor=#F58534;gradientColor=none;" parent="1" vertex="1">
          <mxGeometry x="703" y="284" width="76.5" height="93" as="geometry" />
        </mxCell>
        <mxCell id="18" value="" style="outlineConnect=0;dashed=0;verticalLabelPosition=bottom;verticalAlign=top;align=center;html=1;shape=mxgraph.aws3.mysql_db_instance;fillColor=#2E73B8;gradientColor=none;" parent="1" vertex="1">
          <mxGeometry x="985.5" y="298" width="60" height="64.5" as="geometry" />
        </mxCell>
        <mxCell id="19" style="edgeStyle=orthogonalEdgeStyle;rounded=0;orthogonalLoop=1;jettySize=auto;html=1;exitX=1;exitY=0.5;exitDx=0;exitDy=0;exitPerimeter=0;entryX=0.26;entryY=0.5;entryDx=0;entryDy=0;entryPerimeter=0;" parent="1" source="20" target="7" edge="1">
          <mxGeometry relative="1" as="geometry" />
        </mxCell>
        <mxCell id="20" value="" style="outlineConnect=0;dashed=0;verticalLabelPosition=bottom;verticalAlign=top;align=center;html=1;shape=mxgraph.aws3.users;fillColor=#D2D3D3;gradientColor=none;" parent="1" vertex="1">
          <mxGeometry x="68" y="244" width="66" height="63" as="geometry" />
        </mxCell>
        <mxCell id="21" style="edgeStyle=orthogonalEdgeStyle;rounded=0;orthogonalLoop=1;jettySize=auto;html=1;exitX=1;exitY=0.5;exitDx=0;exitDy=0;exitPerimeter=0;entryX=0;entryY=0.82;entryDx=0;entryDy=0;entryPerimeter=0;" parent="1" source="22" target="7" edge="1">
          <mxGeometry relative="1" as="geometry" />
        </mxCell>
        <mxCell id="22" value="" style="outlineConnect=0;dashed=0;verticalLabelPosition=bottom;verticalAlign=top;align=center;html=1;shape=mxgraph.aws3.users;fillColor=#D2D3D3;gradientColor=none;" parent="1" vertex="1">
          <mxGeometry x="68" y="376" width="66" height="63" as="geometry" />
        </mxCell>
        <mxCell id="23" value="Devloper" style="text;html=1;resizable=0;points=[];autosize=1;align=left;verticalAlign=top;spacingTop=-4;" parent="1" vertex="1">
          <mxGeometry x="10" y="269" width="60" height="20" as="geometry" />
        </mxCell>
        <mxCell id="24" value="User" style="text;html=1;resizable=0;points=[];autosize=1;align=left;verticalAlign=top;spacingTop=-4;" parent="1" vertex="1">
          <mxGeometry x="20" y="404.5" width="40" height="20" as="geometry" />
        </mxCell>
        <mxCell id="25" value="Route 53&lt;br&gt;" style="text;html=1;resizable=0;points=[];autosize=1;align=left;verticalAlign=top;spacingTop=-4;" parent="1" vertex="1">
          <mxGeometry x="323" y="384.5" width="60" height="20" as="geometry" />
        </mxCell>
        <mxCell id="26" value="Cloud Front" style="text;html=1;resizable=0;points=[];autosize=1;align=left;verticalAlign=top;spacingTop=-4;" parent="1" vertex="1">
          <mxGeometry x="543" y="184" width="80" height="20" as="geometry" />
        </mxCell>
        <mxCell id="27" value="S3" style="text;html=1;resizable=0;points=[];autosize=1;align=left;verticalAlign=top;spacingTop=-4;" parent="1" vertex="1">
          <mxGeometry x="1005" y="184" width="30" height="20" as="geometry" />
        </mxCell>
        <mxCell id="28" value="EC2" style="text;html=1;resizable=0;points=[];autosize=1;align=left;verticalAlign=top;spacingTop=-4;" parent="1" vertex="1">
          <mxGeometry x="721.5" y="376" width="40" height="20" as="geometry" />
        </mxCell>
        <mxCell id="29" value="MySqL RDS&lt;br&gt;( Always )" style="text;html=1;resizable=0;points=[];autosize=1;align=center;verticalAlign=top;spacingTop=-4;" parent="1" vertex="1">
          <mxGeometry x="979.5" y="367" width="80" height="30" as="geometry" />
        </mxCell>
      </root>
    </mxGraphModel>
  </diagram>
</mxfile>
